<?xml version="1.0" encoding="utf-8"?>
<!-- Svg Vector Icons : http://www.onlinewebfonts.com/icon -->
<!DOCTYPE svg PUBLIC "-//W3C//DTD SVG 1.1//EN" "http://www.w3.org/Graphics/SVG/1.1/DTD/svg11.dtd">
<svg version="1.1" xmlns="http://www.w3.org/2000/svg" xmlns:xlink="http://www.w3.org/1999/xlink" x="0px" y="0px" viewBox="0 0 1000 1000" enable-background="new 0 0 1000 1000" xml:space="preserve">
<metadata> Svg Vector Icons : http://www.onlinewebfonts.com/icon </metadata>
<g><path d="M500,990C229.4,990,10,770.6,10,500C10,229.4,229.4,10,500,10c270.6,0,490,219.4,490,490C990,770.6,770.6,990,500,990L500,990z M761.3,336.7c0-54.2-43.9-98-98-98H336.7c-54.1,0-98,43.8-98,98v326.7c0,54.1,43.9,98,98,98h326.7c54.1,0,98-43.9,98-98V336.7L761.3,336.7z M663.4,651.8H336.7c-18,0-32.6-14.7-32.6-32.7c0-18,14.6-32.7,32.6-32.7h326.7c18,0,32.6,14.6,32.6,32.7C696,637.1,681.4,651.8,663.4,651.8L663.4,651.8z M663.4,565.4H336.7c-18,0-32.6-14.7-32.6-32.7c0-18.1,14.6-32.7,32.6-32.7h326.7c18,0,32.6,14.6,32.6,32.7C696,550.7,681.4,565.4,663.4,565.4L663.4,565.4z M663.4,478.2H532.7c-18.1,0-32.7-14.6-32.7-32.7c0-18,14.6-32.6,32.7-32.6h130.7c18,0,32.6,14.6,32.6,32.6C696,463.6,681.4,478.2,663.4,478.2L663.4,478.2z M663.4,369.4H532.7c-18.1,0-32.7-14.7-32.7-32.7c0-18.1,14.6-32.7,32.7-32.7h130.7c18,0,32.6,14.6,32.6,32.7C696,354.7,681.4,369.4,663.4,369.4L663.4,369.4z M303.8,303.8l151.3,87l-151.3,87V303.8L303.8,303.8z"/></g>
</svg>